<?xml version="1.0" encoding="UTF-8"?>
<svg version="1.1" xmlns="http://www.w3.org/2000/svg" width="512" height="512">
<path d="M0 0 C2.33500604 -0.00543493 4.67000864 -0.0125652 7.00500488 -0.02124023 C13.28604208 -0.03931342 19.56681339 -0.03247275 25.84785461 -0.01972389 C31.78558643 -0.01055152 37.72328702 -0.01759438 43.6610198 -0.02343267 C56.1372811 -0.03478473 68.61342402 -0.02180983 81.08966589 -0.00023121 C91.74863852 0.01763489 102.40743676 0.01452926 113.06640625 -0.00390625 C125.5040841 -0.02540872 137.94165872 -0.0336866 150.37935257 -0.0214572 C156.94138008 -0.0152592 163.50328805 -0.01428398 170.06530762 -0.02760315 C176.2379893 -0.03925961 182.41034558 -0.03095889 188.58299255 -0.00802612 C190.83218346 -0.00279093 193.08140233 -0.00416224 195.33058167 -0.01307678 C212.5718852 -0.07504926 229.55846848 1.33536054 245.765625 7.70507812 C246.53600098 7.99987061 247.30637695 8.29466309 248.10009766 8.59838867 C261.44170028 13.89034755 272.99421845 21.40897767 284.015625 30.51757812 C285.17191406 31.46117187 285.17191406 31.46117187 286.3515625 32.42382812 C300.31359905 44.19259457 310.74428244 59.90026652 318.015625 76.51757812 C318.29776855 77.15775879 318.57991211 77.79793945 318.87060547 78.45751953 C326.97718792 97.27415375 328.61362936 116.21004768 328.53320312 136.50195312 C328.53863806 138.83695916 328.54576833 141.17196176 328.55444336 143.50695801 C328.57251655 149.7879952 328.56567587 156.06876652 328.55292702 162.34980774 C328.54375464 168.28753955 328.5507975 174.22524015 328.5566358 180.16297293 C328.56798786 192.63923423 328.55501295 205.11537715 328.53343433 217.59161901 C328.51556823 228.25059164 328.51867387 238.90938989 328.53710938 249.56835938 C328.55861184 262.00603722 328.56688973 274.44361184 328.55466032 286.88130569 C328.54846232 293.44333321 328.54748711 300.00524117 328.56080627 306.56726074 C328.57246273 312.73994243 328.56416201 318.91229871 328.54122925 325.08494568 C328.53599406 327.33413659 328.53736537 329.58335546 328.54627991 331.83253479 C328.60825238 349.07383832 327.19784258 366.0604216 320.828125 382.26757812 C320.53333252 383.0379541 320.23854004 383.80833008 319.93481445 384.60205078 C307.55819041 415.80486312 282.73405229 441.08031084 252.11035156 454.63867188 C248.4572641 456.17143584 244.76162182 457.54231562 241.015625 458.83007812 C240.35320801 459.06057861 239.69079102 459.2910791 239.00830078 459.52856445 C223.59242089 464.51519322 208.52897292 464.9573527 192.48535156 464.92163086 C190.15093664 464.92734443 187.81652451 464.93431248 185.4821167 464.94242859 C179.1843607 464.96026788 172.88674474 464.9592088 166.58897114 464.9534862 C160.64103846 464.94998596 154.69312658 464.95797768 148.74519846 464.96484686 C136.24227332 464.97852771 123.73941101 464.97316586 111.23648736 464.96166164 C99.84400063 464.9517382 88.45167652 464.96466239 77.05921486 464.98859584 C65.31098602 465.01308727 53.56283259 465.02256993 41.81457877 465.01594311 C35.23907859 465.01247252 28.66368715 465.01488162 22.08820343 465.03219414 C15.8991728 465.04778001 9.71044996 465.04357967 3.52143097 465.02488899 C1.26578831 465.02123485 -0.98987775 465.02421734 -3.24549866 465.03477478 C-21.0292601 465.11157854 -38.23007072 463.53827707 -54.859375 456.76757812 C-55.72884766 456.4232373 -56.59832031 456.07889648 -57.49414062 455.72412109 C-70.33397539 450.49932527 -81.29212881 443.26969899 -91.984375 434.51757812 C-92.7578125 433.88722656 -93.53125 433.256875 -94.328125 432.60742188 C-108.28197292 420.82715411 -118.71185033 405.13759124 -125.984375 388.51757812 C-126.26651855 387.87739746 -126.54866211 387.2372168 -126.83935547 386.57763672 C-134.94593792 367.7610025 -136.58237936 348.82510857 -136.50195312 328.53320312 C-136.50738806 326.19819709 -136.51451833 323.86319449 -136.52319336 321.52819824 C-136.54126655 315.24716105 -136.53442587 308.96638973 -136.52167702 302.68534851 C-136.51250464 296.7476167 -136.5195475 290.8099161 -136.5253858 284.87218332 C-136.53673786 272.39592202 -136.52376295 259.9197791 -136.50218433 247.44353724 C-136.48431823 236.78456461 -136.48742387 226.12576636 -136.50585938 215.46679688 C-136.52736184 203.02911903 -136.53563973 190.59154441 -136.52341032 178.15385056 C-136.51721232 171.59182304 -136.51623711 165.02991508 -136.52955627 158.46789551 C-136.54121273 152.29521382 -136.53291201 146.12285754 -136.50997925 139.95021057 C-136.50474406 137.70101966 -136.50611537 135.45180079 -136.51502991 133.20262146 C-136.57700238 115.96131793 -135.16659258 98.97473465 -128.796875 82.76757812 C-128.50208252 81.99720215 -128.20729004 81.22682617 -127.90356445 80.43310547 C-122.61160557 67.09150284 -115.09297545 55.53898468 -105.984375 44.51757812 C-105.3553125 43.74671875 -104.72625 42.97585937 -104.078125 42.18164062 C-92.30935856 28.21960407 -76.60168661 17.78892068 -59.984375 10.51757812 C-59.34419434 10.23543457 -58.70401367 9.95329102 -58.04443359 9.66259766 C-39.22779937 1.55601521 -20.29190545 -0.08042624 0 0 Z " fill="#00BCD4" transform="translate(159.984375,23.482421875)"/>
<path d="M0 0 C7.91645642 4.57989825 10.36427767 10.2498273 12.72851562 18.86767578 C15.18171838 28.76570626 16.70666293 38.89461977 18.4375 48.9375 C19.028711 52.34877782 19.6221525 55.75961661 20.22103882 59.16955566 C20.59083681 61.27672673 20.95616239 63.38468918 21.3163147 65.49353027 C22.15705642 70.29976625 23.07947215 74.85354932 24.8125 79.4375 C25.02342285 78.83800537 25.2343457 78.23851074 25.45166016 77.62084961 C26.43104849 74.86628671 27.43402413 72.12087489 28.4375 69.375 C28.76878906 68.43205078 29.10007812 67.48910156 29.44140625 66.51757812 C32.2404418 58.93905735 35.56508484 53.12661805 42.6875 49 C47.64807856 46.82562875 52.01247132 46.55896751 57.140625 48.16796875 C64.42905037 51.12436646 68.46850193 55.22763948 71.88497925 62.2253418 C73.35147061 65.72295722 74.00882182 69.24139281 74.62890625 72.96875 C74.84280251 74.16002502 74.84280251 74.16002502 75.0610199 75.37536621 C75.51067806 77.89417995 75.94328314 80.41555604 76.375 82.9375 C76.66746024 84.59655899 76.96107225 86.25541538 77.25585938 87.9140625 C77.83345632 91.17120929 78.40700708 94.4290231 78.97705078 97.6875 C79.79095994 102.32577149 80.61612566 106.96171526 81.46484375 111.59375 C81.70066162 112.89119141 81.93647949 114.18863281 82.17944336 115.52539062 C82.51135831 118.31661182 82.51135831 118.31661182 83.8125 119.4375 C84.08924561 118.41914063 84.36599121 117.40078125 84.65112305 116.3515625 C85.69107971 112.5384734 86.74819856 108.7303136 87.81030273 104.92333984 C88.26577301 103.2817121 88.71671172 101.63881952 89.1628418 99.99462891 C94.56880443 80.09827036 94.56880443 80.09827036 100.9453125 74.59765625 C101.93144531 74.05431641 101.93144531 74.05431641 102.9375 73.5 C103.60007812 73.11972656 104.26265625 72.73945313 104.9453125 72.34765625 C108.48291991 70.62325766 111.31618176 70.29989522 115.19848633 70.26049805 C116.30005569 70.24766281 117.40162506 70.23482758 118.53657532 70.22160339 C119.72720078 70.21421646 120.91782623 70.20682953 122.14453125 70.19921875 C123.36903488 70.191147 124.59353851 70.18307526 125.85514832 70.17475891 C128.44842106 70.16091973 131.04171201 70.15019684 133.63500977 70.14233398 C137.59882111 70.12511373 141.56180015 70.0812232 145.52539062 70.03710938 C148.0442647 70.02698312 150.56314586 70.01846681 153.08203125 70.01171875 C154.26658401 69.99421066 155.45113678 69.97670258 156.67158508 69.95866394 C164.48963644 69.97925053 167.98078862 70.86123605 173.6875 76.1875 C175.38355479 79.57960957 175.45355485 82.77432942 174.8125 86.4375 C172.71557367 90.4815722 171.04885015 92.78573495 166.8125 94.4375 C164.39532471 94.67800903 164.39532471 94.67800903 161.67675781 94.66455078 C160.65600159 94.66439972 159.63524536 94.66424866 158.58355713 94.66409302 C157.48863953 94.65377045 156.39372192 94.64344788 155.265625 94.6328125 C153.57611725 94.62856766 153.57611725 94.62856766 151.85247803 94.62423706 C148.25571054 94.61304374 144.65919221 94.58794037 141.0625 94.5625 C138.62370151 94.55246912 136.18489912 94.54334346 133.74609375 94.53515625 C127.76814418 94.51310716 121.79033989 94.47963784 115.8125 94.4375 C115.60886841 96.00141479 115.60886841 96.00141479 115.40112305 97.59692383 C114.90953281 100.80439208 114.27540822 103.77197642 113.39453125 106.88671875 C113.11262939 107.89049561 112.83072754 108.89427246 112.5402832 109.9284668 C112.23823975 110.98332275 111.93619629 112.03817871 111.625 113.125 C111.15743286 114.76819214 111.15743286 114.76819214 110.68041992 116.44458008 C110.03953652 118.68905494 109.39606421 120.93279218 108.75 123.17578125 C107.87541087 126.21862262 107.01500728 129.26516227 106.15625 132.3125 C105.64692425 134.08364741 105.13656733 135.85449873 104.625 137.625 C104.39981689 138.43090576 104.17463379 139.23681152 103.94262695 140.06713867 C101.72539506 147.60508372 98.28111064 152.78010034 91.8125 157.4375 C86.13931785 159.97232607 80.75266198 160.2149616 74.8125 158.4375 C69.29328097 156.18256615 65.16600205 151.51549388 62.78601074 146.10316467 C61.87210904 143.60072132 61.27611141 141.26902833 60.79101562 138.65405273 C60.53064514 137.27122353 60.53064514 137.27122353 60.26501465 135.86045837 C60.08474731 134.87396805 59.90447998 133.88747772 59.71875 132.87109375 C59.52655884 131.84121841 59.33436768 130.81134308 59.13635254 129.7502594 C58.52359219 126.45937865 57.91809068 123.16720679 57.3125 119.875 C56.90539421 117.68676588 56.49784668 115.4986139 56.08984375 113.31054688 C54.24221036 103.36601186 52.44807504 93.41945944 50.8125 83.4375 C48.89685528 87.63718265 47.04776607 91.77972949 45.4921875 96.12890625 C42.34476233 104.90049089 39.08115505 110.68910014 30.8984375 115.58203125 C26.13202646 117.53679533 20.37270378 117.1960789 15.4921875 115.75 C9.49772119 113.01488229 5.93319361 109.04136784 3.31494141 102.95800781 C1.42065003 97.71777826 0.52488049 92.33706411 -0.4140625 86.859375 C-0.60721039 85.77037903 -0.80035828 84.68138306 -0.99935913 83.55938721 C-1.61093005 80.10331265 -2.21206805 76.64552542 -2.8125 73.1875 C-3.42224532 69.71560631 -4.03412261 66.24409685 -4.64706421 62.77276611 C-5.02669845 60.61851325 -5.40408178 58.46386223 -5.77896118 56.30877686 C-6.03460342 54.84640594 -6.03460342 54.84640594 -6.29541016 53.35449219 C-6.44402496 52.49925964 -6.59263977 51.6440271 -6.74575806 50.76287842 C-7.15273769 48.46747557 -7.15273769 48.46747557 -7.73934937 46.36456299 C-8.42928207 43.39782887 -8.24578469 40.46830396 -8.1875 37.4375 C-8.8475 37.4375 -9.5075 37.4375 -10.1875 37.4375 C-10.35765625 38.83162109 -10.35765625 38.83162109 -10.53125 40.25390625 C-11.26562031 45.36517463 -12.49904439 50.35370611 -13.6875 55.375 C-15.60835275 63.58325702 -17.50147621 71.79635563 -19.33984375 80.0234375 C-19.52558456 80.85458069 -19.71132538 81.68572388 -19.9026947 82.54205322 C-20.28400224 84.2487328 -20.66528352 85.95541824 -21.04653931 87.66210938 C-24.4543428 102.90778262 -27.97257638 118.11682511 -31.6953125 133.2890625 C-32.62618864 137.08848543 -33.52436537 140.89102638 -34.3671875 144.7109375 C-36.68764113 155.22712868 -38.72023106 164.08937767 -48.1875 170.4375 C-53.79679175 172.30726392 -60.74005932 172.49222398 -66.421875 170.75390625 C-74.72169604 166.32855919 -78.23809083 157.83659337 -82.1171875 149.78515625 C-82.67060822 148.65283066 -83.22402893 147.52050507 -83.79421997 146.35386658 C-85.26067855 143.34912547 -86.71972702 140.34101277 -88.17541504 137.33105469 C-89.63497681 134.31833602 -91.10530747 131.31090551 -92.57421875 128.30273438 C-98.21660944 116.72951354 -103.81451894 105.13863151 -109.1875 93.4375 C-110.33750488 93.43339111 -111.48750977 93.42928223 -112.67236328 93.42504883 C-116.95552863 93.40321068 -121.23778145 93.34887294 -125.52050781 93.28491211 C-127.37100451 93.26177281 -129.22163215 93.24734595 -131.07226562 93.24194336 C-133.73910734 93.23262375 -136.40390132 93.19157009 -139.0703125 93.14453125 C-139.89242218 93.1484639 -140.71453186 93.15239655 -141.56155396 93.15644836 C-145.69044111 93.05251616 -148.40222581 92.69051369 -151.69482422 90.08081055 C-155.12155309 86.44700119 -155.59384308 83.46154893 -155.5390625 78.50390625 C-154.90065462 74.75148662 -152.90960538 73.03587332 -150.1875 70.4375 C-147.3432379 68.72724886 -145.23233498 68.18157212 -141.92895508 68.14697266 C-141.09741409 68.13421295 -140.26587311 68.12145325 -139.40913391 68.10830688 C-138.51744003 68.10608124 -137.62574615 68.10385559 -136.70703125 68.1015625 C-135.77960617 68.0949057 -134.85218109 68.0882489 -133.89665222 68.08139038 C-131.93396992 68.07127171 -129.97125328 68.06657312 -128.00854492 68.06689453 C-125.02789359 68.06254074 -122.04874693 68.02626682 -119.06835938 67.98828125 C-117.15625503 67.9824088 -115.24414369 67.97844227 -113.33203125 67.9765625 C-112.45045853 67.96219147 -111.5688858 67.94782043 -110.66059875 67.93301392 C-103.74946924 67.98320379 -97.82928266 69.31019717 -92.47467041 73.90835571 C-88.26631741 78.46517695 -85.67691616 83.87923491 -83.03515625 89.4375 C-82.57193466 90.39084229 -82.10871307 91.34418457 -81.63145447 92.32641602 C-80.16109257 95.35878306 -78.70546863 98.39796128 -77.25 101.4375 C-76.27763278 103.44706973 -75.3043331 105.45618855 -74.33007812 107.46484375 C-69.19141807 118.08001434 -64.13364654 128.73124393 -59.1875 139.4375 C-55.13485038 124.49328904 -51.57374712 109.45162684 -48.09472656 94.36474609 C-46.63818631 88.05274633 -45.16138588 81.7454668 -43.6875 75.4375 C-43.1080166 72.95313813 -42.52858969 70.46876309 -41.94921875 67.984375 C-40.90081911 63.49073139 -39.85073899 58.99748889 -38.79803467 54.50485229 C-38.33483249 52.52758266 -37.87221004 50.55017806 -37.40966797 48.57275391 C-36.81014061 46.01213167 -36.20894326 43.45189978 -35.60595703 40.89208984 C-34.35310306 35.55127511 -33.1199326 30.21367943 -32.03515625 24.8359375 C-28.60444305 7.84980502 -28.60444305 7.84980502 -22.1953125 2.8984375 C-15.22031498 -1.67491252 -7.90360118 -3.55662053 0 0 Z " fill="#FCFEFE" transform="translate(246.1875,170.5625)"/>
<path d="M0 0 C0.66 0.33 1.32 0.66 2 1 C-4.27 7.27 -10.54 13.54 -17 20 C-17 14.7770166 -12.50927629 11.58646849 -9 8 C-6.39555103 5.58764589 -3.72056273 3.27957376 -1 1 C-0.67 0.67 -0.34 0.34 0 0 Z " fill="#7076A4" transform="translate(70,52)"/>
</svg>
